PathFileType	4	(X/Y/Z)	Patient4_TMGait_0pt3_02_right_27.trc.trc
DataRate	CameraRate	NumFrames	NumMarkers	Units	OrigDataRate	OrigDataStartFrame	OrigNumFrames
51.470588235294	51.470588235294	5	33	mm	51.470588235294	89	       141
Frame#	Time	Sacral			L.Shoulder			Chest			R.Shoulder			Neck			R.ASIS			L.ASIS			R.Thigh.Superior			R.Thigh.Lateral			R.Thigh.Inferior			R.Patella			L.Thigh.Superior			L.Thigh.Lateral			L.Thigh.Inferior			L.Patella			L.Shank.Superior			L.Shank.Lateral			L.Shank.Inferior			R.Shank.Superior			R.Shank.Lateral			R.Shank.Inferior			R.Heel			R.Midfoot.Superior			R.Midfoot.Lateral			R.Toe			L.Heel			L.Midfoot.Lateral			L.Midfoot.Superior			L.Toe			L.Elbow			L.Wrist			R.Elbow			R.Wrist			
		X1	Y1	Z1	X2	Y2	Z2	X3	Y3	Z3	X4	Y4	Z4	X5	Y5	Z5	X6	Y6	Z6	X7	Y7	Z7	X8	Y8	Z8	X9	Y9	Z9	X10	Y10	Z10	X11	Y11	Z11	X12	Y12	Z12	X13	Y13	Z13	X14	Y14	Z14	X15	Y15	Z15	X16	Y16	Z16	X17	Y17	Z17	X18	Y18	Z18	X19	Y19	Z19	X20	Y20	Z20	X21	Y21	Z21	X22	Y22	Z22	X23	Y23	Z23	X24	Y24	Z24	X25	Y25	Z25	X26	Y26	Z26	X27	Y27	Z27	X28	Y28	Z28	X29	Y29	Z29	X30	Y30	Z30	X31	Y31	Z31	X32	Y32	Z32	X33	Y33	Z33	

89	53.659714285714	766.371889246980	1002.593026750085	493.233011983278	890.052855990757	1418.637182444518	270.497544370302	1030.533739520904	1356.590128986059	404.082123466522	992.737785640908	1440.909645236962	587.653424978277	912.498641723026	1488.625514661117	421.686109250954	1007.405687486243	929.748025494365	573.040398943309	955.723185896059	958.572405583845	304.596150455098	1004.016388655843	716.468392634955	545.487311940909	907.577873590793	618.084752302581	612.543456765594	965.990650175769	553.639082798289	528.894566541304	945.192285748615	456.132726531352	540.633400019021	1033.084618274320	763.971737746182	340.840085545176	964.967334384474	635.047584580421	277.542315522239	1061.292444512837	571.163053015670	340.042713575406	1071.201194247752	501.038955052178	346.625084767880	1050.428767429283	426.303147902547	337.359861649163	971.019048124735	305.937737908732	282.205645999559	1031.972516246385	197.987663484807	352.099991730641	881.368210773816	383.681530990281	548.721049058389	777.690246929962	315.110215674468	614.549178447472	778.719879766325	210.766423788431	553.906410381054	592.481332876291	88.166324031709	529.569863168082	772.012231082316	103.102853300558	564.827550528743	672.966940301013	61.434201324218	602.825394401308	876.741429302705	36.491605528332	592.560657937084	912.787056234149	38.140444303966	386.451611914507	990.957915074195	35.469019893181	309.447687423757	1071.154796186683	99.112121090066	339.908862738277	1200.978883726373	51.490152551309	319.079114496051	780.758643293360	1076.706369797794	190.988199357422	820.378493992770	817.483860201871	199.811947884314	1191.663184320215	1165.914956032718	689.739332745070	1425.097177937497	1227.498730582966	604.794345731823	
90	53.679142857143	766.656601948990	1003.132293001773	488.026977594435	892.121399027965	1419.084373359041	266.161863961896	1031.151343239793	1357.590644543308	401.472836574516	991.179485299107	1442.231811780334	584.424066176359	912.658069555219	1489.488518249897	417.465749428662	1007.195396049898	930.738188472647	570.260202977623	957.959747154162	959.372445069708	301.326206937437	1006.544666658404	717.787143448200	543.605624202881	911.270299640364	618.592823814912	610.576422724879	971.759275250742	554.188957204945	528.013907941332	951.683851934967	455.333088173143	541.206061405077	1033.892448649500	763.368948751346	337.792095160488	964.670681986127	634.910608165168	275.189757485432	1060.013182677830	570.378189404901	338.303059447086	1069.297919540834	500.280767262738	345.503137195225	1048.048371104314	425.552847893305	336.393197418488	968.029267047108	305.628070095437	281.266226566120	1027.483739391345	197.499363206826	351.997498958739	885.844148636358	384.001469367782	548.886768128395	779.721060023249	318.594717813052	613.874571007449	779.203650353356	213.501287844577	554.307179890471	589.920515063401	96.125823979631	529.658730656616	769.839747690919	104.210033071023	565.458510111998	669.163126206580	65.969386165497	602.873039399322	871.310517612750	36.352630249267	592.454242315095	906.917072846061	38.107752580188	386.463602454562	985.076054987044	35.430342899741	309.450126377934	1065.370441558187	98.805614107506	340.093474308833	1195.142958638235	51.145197626907	319.124414973194	792.792873492197	1074.450764573928	182.579740401757	838.625901807849	816.216787418041	189.219241796849	1184.562871568204	1162.095840233681	687.719191371721	1421.726209861495	1212.758091860144	604.539891412510	
91	53.698571428571	766.801296251213	1003.575382286532	482.775284597267	894.256363976653	1419.619737294869	261.998227635896	1031.664967976918	1358.591483238161	399.120625596583	989.395006152902	1443.447308242408	581.447770701907	912.763315095090	1490.356464997927	413.421903378603	1006.835901104682	931.723791644951	567.499423987974	960.086728791844	960.212301584864	298.062336617624	1009.721875313955	719.341008207589	541.760079296743	916.038824862719	619.071967521618	608.685646040035	978.899663068087	554.927451952925	527.247184057279	959.771896051737	454.639070070884	541.922067190445	1034.500416090952	762.711364927080	334.717331022732	964.138144412207	634.751497703188	272.854010426240	1058.431388624931	569.561942814406	336.620293904358	1067.060070085427	499.517333106296	344.423571809055	1045.376464384876	424.833048392111	335.451282400958	964.840081703254	305.295907245173	280.396541993059	1022.883087606794	197.032693224076	351.896931197559	891.859972553923	384.417314440436	549.204482269949	783.207991005298	322.470098123922	613.285505389291	780.914687119739	216.661744432638	554.873525189069	588.548106978078	105.550045778680	529.859143596687	768.374185664711	105.482152739490	566.237328798947	666.030030013132	71.447483423578	602.986537943644	865.847032292035	36.092145701240	592.349143910476	901.042722411395	38.079517189828	386.472600702379	979.194613634753	35.394754041614	309.457539801045	1059.594072891148	98.496939619405	340.274683722263	1189.316614853798	50.762183304659	319.170390520675	805.851410029068	1072.461771967663	174.225164804651	857.635770825911	815.384972876212	179.012325250284	1176.147818136106	1157.589971754114	686.141443158404	1416.757040939647	1195.897656049958	604.944233213106	
92	53.718000000000	766.811192758674	1003.895350036388	477.489052875820	896.435762681890	1420.253373560294	258.052322951564	1032.063331177311	1359.568917030847	397.038099895604	987.395220490558	1444.487138507069	578.757129373017	912.818555048175	1491.205666553691	409.616442986639	1006.328192788106	932.692153188005	564.743477824616	962.087387146008	961.062499296446	294.804334279958	1013.546857235857	721.153041838089	539.921308072177	921.883364041801	619.577788355491	606.852023199497	987.344336120691	555.926388518208	526.523815143726	969.393284273310	454.165085040550	542.646304294061	1034.951567676175	762.031512160873	331.683421621299	963.497243719486	634.569324995102	270.552342139100	1056.681460322554	568.738196121495	335.042072838492	1064.641080186186	498.752016992645	343.420903714975	1042.535682679664	424.136581154975	334.566591545654	961.543534091735	304.961477504421	279.599868100352	1018.205903624469	196.580949661538	351.815559381265	899.404362594549	385.004594501696	549.584515834773	788.234857029031	326.767790281614	612.764101447857	783.937937285752	220.308951245003	555.586600752032	588.624611403234	116.561996546833	530.188042517360	767.669950128491	106.976942855544	567.156523381141	663.724525870279	78.013755761764	603.174604144847	860.319509233881	35.649375491171	592.265749386019	895.169854201248	38.055543234122	386.476666100756	973.320237439939	35.370280027871	309.469613862103	1053.827964014343	98.203499781250	340.454273811474	1183.504484573241	50.360280898570	319.217235400143	819.776368520647	1070.851745337069	166.025055999206	877.440173089335	815.115725928823	169.304043270470	1166.408855284758	1152.413058921502	684.954835515745	1409.969380039023	1176.842920836104	606.056771152712	
93	53.737428571429	766.693154796847	1004.064013518746	472.181352776619	898.639785619360	1420.985611796167	254.364690941361	1032.339088958859	1360.494811518347	395.236144971720	985.187085554117	1445.281068760390	576.378973657225	912.828058318182	1492.005327606586	406.112658500883	1005.679453468309	933.632688477779	561.981506807148	963.952669814522	961.880107130081	291.556364850791	1017.987058052330	723.245024234188	538.036989988326	928.769431243910	620.174581083155	605.034944734481	996.963519798041	557.260893067491	525.733314754218	980.425091208684	454.024546260764	543.211637082310	1035.304953717207	761.352443223345	328.751133735591	962.879382580487	634.349444605314	268.308748256963	1054.914328287138	567.920480057617	333.609412598730	1062.217014892703	497.977875023896	342.526092181991	1039.665710974912	423.443433518570	333.770979116693	958.238583214500	304.637259007480	278.880663345381	1013.491960327909	196.130504206772	351.768446847315	908.403361742110	385.842661602058	549.908586301295	794.824543897951	331.512055823396	612.271443792639	788.309107130565	224.491765066600	556.404423746110	590.377139834187	129.205980374705	530.638076958818	767.762698642441	108.768203726615	568.193570525699	662.396424191133	85.781622697620	603.432189459964	854.707481425434	34.972973614179	592.231566559578	889.301764480787	38.035649139392	386.475149289320	967.456434147572	35.362232026548	309.486561872681	1048.073520005952	97.937838365600	340.635058801223	1177.709292592152	49.950787825679	319.265394473344	834.370297117299	1069.719264559222	158.071835265649	898.048634984865	815.545461275164	160.189379758412	1155.369249213802	1146.604036769430	684.075917027122	1401.138426955095	1155.574857504251	607.921216394032	
